<svg width="18" height="18" viewBox="0 0 18 18" fill="none" xmlns="http://www.w3.org/2000/svg">
<path d="M13.8987 13.1041C14.0037 13.2096 14.0626 13.3523 14.0626 13.5011C14.0626 13.6498 14.0037 13.7925 13.8987 13.898C13.822 13.9732 12.0108 15.75 9 15.75C6.37102 15.75 4.46273 14.175 3.375 12.948V14.625C3.375 14.7742 3.31574 14.9173 3.21025 15.0227C3.10476 15.1282 2.96168 15.1875 2.8125 15.1875C2.66332 15.1875 2.52024 15.1282 2.41475 15.0227C2.30926 14.9173 2.25 14.7742 2.25 14.625V11.25C2.25 11.1008 2.30926 10.9577 2.41475 10.8523C2.52024 10.7468 2.66332 10.6875 2.8125 10.6875H6.1875C6.33668 10.6875 6.47976 10.7468 6.58525 10.8523C6.69074 10.9577 6.75 11.1008 6.75 11.25C6.75 11.3992 6.69074 11.5423 6.58525 11.6477C6.47976 11.7532 6.33668 11.8125 6.1875 11.8125H3.89812C4.76437 12.8918 6.53906 14.625 9 14.625C11.5312 14.625 13.088 13.1161 13.1034 13.1006C13.2094 12.9957 13.3527 12.9371 13.5018 12.9378C13.6509 12.9384 13.7937 12.9983 13.8987 13.1041ZM15.1875 2.8125C15.0383 2.8125 14.8952 2.87176 14.7898 2.97725C14.6843 3.08274 14.625 3.22582 14.625 3.375V5.05195C13.5373 3.825 11.629 2.25 9 2.25C5.98922 2.25 4.17797 4.0268 4.10203 4.10203C3.9963 4.20739 3.93675 4.35044 3.93648 4.49971C3.93622 4.64898 3.99526 4.79223 4.10063 4.89797C4.20599 5.0037 4.34904 5.06325 4.4983 5.06352C4.64757 5.06378 4.79083 5.00474 4.89656 4.89937C4.91203 4.88391 6.46875 3.375 9 3.375C11.4609 3.375 13.2356 5.1082 14.1019 6.1875H11.8125C11.6633 6.1875 11.5202 6.24676 11.4148 6.35225C11.3093 6.45774 11.25 6.60082 11.25 6.75C11.25 6.89918 11.3093 7.04226 11.4148 7.14775C11.5202 7.25324 11.6633 7.3125 11.8125 7.3125H15.1875C15.3367 7.3125 15.4798 7.25324 15.5852 7.14775C15.6907 7.04226 15.75 6.89918 15.75 6.75V3.375C15.75 3.22582 15.6907 3.08274 15.5852 2.97725C15.4798 2.87176 15.3367 2.8125 15.1875 2.8125Z" fill="#040712"/>
</svg>
