<svg width="12" height="13" viewBox="0 0 12 13" fill="none" xmlns="http://www.w3.org/2000/svg">
<path d="M10.3903 6.76552L7.01531 10.1405C6.94495 10.2109 6.84951 10.2504 6.75 10.2504C6.65049 10.2504 6.55505 10.2109 6.48469 10.1405C6.41432 10.0702 6.37479 9.97472 6.37479 9.87521C6.37479 9.7757 6.41432 9.68026 6.48469 9.6099L9.21984 6.87521H1.875C1.77554 6.87521 1.68016 6.8357 1.60984 6.76537C1.53951 6.69505 1.5 6.59966 1.5 6.50021C1.5 6.40075 1.53951 6.30537 1.60984 6.23504C1.68016 6.16472 1.77554 6.12521 1.875 6.12521H9.21984L6.48469 3.39052C6.41432 3.32016 6.37479 3.22472 6.37479 3.12521C6.37479 3.0257 6.41432 2.93026 6.48469 2.8599C6.55505 2.78953 6.65049 2.75 6.75 2.75C6.84951 2.75 6.94495 2.78953 7.01531 2.8599L10.3903 6.2349C10.4252 6.26972 10.4528 6.31108 10.4717 6.35661C10.4906 6.40213 10.5003 6.45093 10.5003 6.50021C10.5003 6.54949 10.4906 6.59829 10.4717 6.64381C10.4528 6.68934 10.4252 6.73069 10.3903 6.76552Z" fill="#64748B"/>
</svg>
