<svg width="21" height="21" viewBox="0 0 21 21" fill="none" xmlns="http://www.w3.org/2000/svg">
<path d="M16.3359 2.96973H3.83594C3.50442 2.96973 3.18647 3.10142 2.95205 3.33584C2.71763 3.57026 2.58594 3.88821 2.58594 4.21973V16.7197C2.58594 17.0512 2.71763 17.3692 2.95205 17.6036C3.18647 17.838 3.50442 17.9697 3.83594 17.9697H16.3359C16.6675 17.9697 16.9854 17.838 17.2198 17.6036C17.4542 17.3692 17.5859 17.0512 17.5859 16.7197V4.21973C17.5859 3.88821 17.4542 3.57026 17.2198 3.33584C16.9854 3.10142 16.6675 2.96973 16.3359 2.96973ZM16.3359 16.7197H3.83594V4.21973H16.3359V16.7197ZM7.14375 13.4119C7.08564 13.3539 7.03954 13.2849 7.00809 13.2091C6.97664 13.1332 6.96045 13.0519 6.96045 12.9697C6.96045 12.8876 6.97664 12.8063 7.00809 12.7304C7.03954 12.6545 7.08564 12.5856 7.14375 12.5275L11.0773 8.59473H8.83594C8.67018 8.59473 8.51121 8.52888 8.394 8.41167C8.27679 8.29446 8.21094 8.13549 8.21094 7.96973C8.21094 7.80397 8.27679 7.645 8.394 7.52778C8.51121 7.41057 8.67018 7.34473 8.83594 7.34473H12.5859C12.7517 7.34473 12.9107 7.41057 13.0279 7.52778C13.1451 7.645 13.2109 7.80397 13.2109 7.96973V11.7197C13.2109 11.8855 13.1451 12.0445 13.0279 12.1617C12.9107 12.2789 12.7517 12.3447 12.5859 12.3447C12.4202 12.3447 12.2612 12.2789 12.144 12.1617C12.0268 12.0445 11.9609 11.8855 11.9609 11.7197V9.47832L8.02813 13.4119C7.97008 13.47 7.90115 13.5161 7.82528 13.5476C7.7494 13.579 7.66807 13.5952 7.58594 13.5952C7.5038 13.5952 7.42247 13.579 7.3466 13.5476C7.27073 13.5161 7.2018 13.47 7.14375 13.4119Z" fill="white"/>
</svg>
