<svg width="24" height="25" viewBox="0 0 24 25" fill="none" xmlns="http://www.w3.org/2000/svg">
<path d="M19.2806 14.5306L12.5306 21.2806C12.4609 21.3504 12.3782 21.4057 12.2871 21.4434C12.1961 21.4812 12.0985 21.5006 11.9999 21.5006C11.9014 21.5006 11.8038 21.4812 11.7127 21.4434C11.6217 21.4057 11.539 21.3504 11.4693 21.2806L4.7193 14.5306C4.57857 14.3899 4.49951 14.199 4.49951 14C4.49951 13.801 4.57857 13.6101 4.7193 13.4694C4.86003 13.3286 5.05091 13.2496 5.24993 13.2496C5.44895 13.2496 5.63982 13.3286 5.78055 13.4694L11.2499 18.9397V4.25C11.2499 4.05109 11.3289 3.86032 11.4696 3.71967C11.6103 3.57902 11.801 3.5 11.9999 3.5C12.1988 3.5 12.3896 3.57902 12.5303 3.71967C12.6709 3.86032 12.7499 4.05109 12.7499 4.25V18.9397L18.2193 13.4694C18.36 13.3286 18.5509 13.2496 18.7499 13.2496C18.949 13.2496 19.1398 13.3286 19.2806 13.4694C19.4213 13.6101 19.5003 13.801 19.5003 14C19.5003 14.199 19.4213 14.3899 19.2806 14.5306Z" fill="#040712"/>
</svg>
