<svg width="18" height="19" viewBox="0 0 18 19" fill="none" xmlns="http://www.w3.org/2000/svg">
<path d="M14.625 2.75H12.9375V2.1875C12.9375 2.03832 12.8782 1.89524 12.7727 1.78975C12.6673 1.68426 12.5242 1.625 12.375 1.625C12.2258 1.625 12.0827 1.68426 11.9773 1.78975C11.8718 1.89524 11.8125 2.03832 11.8125 2.1875V2.75H6.1875V2.1875C6.1875 2.03832 6.12824 1.89524 6.02275 1.78975C5.91726 1.68426 5.77418 1.625 5.625 1.625C5.47582 1.625 5.33274 1.68426 5.22725 1.78975C5.12176 1.89524 5.0625 2.03832 5.0625 2.1875V2.75H3.375C3.07663 2.75 2.79048 2.86853 2.5795 3.0795C2.36853 3.29048 2.25 3.57663 2.25 3.875V15.125C2.25 15.4234 2.36853 15.7095 2.5795 15.9205C2.79048 16.1315 3.07663 16.25 3.375 16.25H14.625C14.9234 16.25 15.2095 16.1315 15.4205 15.9205C15.6315 15.7095 15.75 15.4234 15.75 15.125V3.875C15.75 3.57663 15.6315 3.29048 15.4205 3.0795C15.2095 2.86853 14.9234 2.75 14.625 2.75ZM5.0625 3.875V4.4375C5.0625 4.58668 5.12176 4.72976 5.22725 4.83525C5.33274 4.94074 5.47582 5 5.625 5C5.77418 5 5.91726 4.94074 6.02275 4.83525C6.12824 4.72976 6.1875 4.58668 6.1875 4.4375V3.875H11.8125V4.4375C11.8125 4.58668 11.8718 4.72976 11.9773 4.83525C12.0827 4.94074 12.2258 5 12.375 5C12.5242 5 12.6673 4.94074 12.7727 4.83525C12.8782 4.72976 12.9375 4.58668 12.9375 4.4375V3.875H14.625V6.125H3.375V3.875H5.0625ZM14.625 15.125H3.375V7.25H14.625V15.125Z" fill="#949BB5"/>
</svg>
