<svg width="18" height="18" viewBox="0 0 18 18" fill="none" xmlns="http://www.w3.org/2000/svg">
<g clip-path="url(#clip0_1_743)">
<path d="M17.6724 7.87494L12.9291 3.09932C11.6623 1.83505 9.94568 1.125 8.15594 1.125C6.36621 1.125 4.64958 1.83505 3.38278 3.09932L3.37645 3.10564L2.40825 4.10619C2.30795 4.21397 2.25391 4.35679 2.25773 4.50397C2.26155 4.65115 2.32292 4.79096 2.42868 4.8934C2.53443 4.99584 2.67613 5.05273 2.82335 5.05187C2.97058 5.051 3.1116 4.99244 3.21614 4.88877L4.18153 3.89174C4.56993 3.50342 5.01316 3.17413 5.49708 2.91439L8.76661 6.18744L2.01661 12.9374C1.91211 13.0419 1.82922 13.1659 1.77267 13.3024C1.71612 13.439 1.68701 13.5853 1.68701 13.733C1.68701 13.8808 1.71612 14.0271 1.77267 14.1636C1.82922 14.3001 1.91211 14.4241 2.01661 14.5286L3.47137 15.9834C3.57584 16.0879 3.69987 16.1708 3.83638 16.2273C3.97289 16.2839 4.1192 16.313 4.26696 16.313C4.41472 16.313 4.56103 16.2839 4.69754 16.2273C4.83405 16.1708 4.95808 16.0879 5.06254 15.9834L11.8125 9.23338L12.8208 10.2417L14.0625 11.482C14.167 11.5865 14.291 11.6694 14.4276 11.7259C14.5641 11.7825 14.7104 11.8116 14.8581 11.8116C15.0059 11.8116 15.1522 11.7825 15.2887 11.7259C15.4252 11.6694 15.5492 11.5865 15.6537 11.482L17.671 9.46471C17.8818 9.25396 18.0003 8.96818 18.0006 8.67011C18.0008 8.37205 17.8828 8.08606 17.6724 7.87494ZM4.26661 15.1874L2.81254 13.7327L7.59379 8.95143L9.04786 10.4062L4.26661 15.1874ZM11.4146 8.03807L9.84379 9.60955L8.38903 8.15619L9.96051 6.58471C10.0128 6.53246 10.0543 6.47043 10.0826 6.40214C10.1109 6.33385 10.1255 6.26066 10.1255 6.18674C10.1255 6.11282 10.1109 6.03962 10.0826 5.97133C10.0543 5.90305 10.0128 5.84101 9.96051 5.78877L6.63192 2.46088C7.59361 2.19003 8.61008 2.18021 9.57682 2.43243C10.5436 2.68465 11.4257 3.18981 12.1325 3.89596L15.2417 7.02557L13.2188 9.04635L12.2105 8.03807C12.1583 7.98577 12.0962 7.94428 12.0279 7.91597C11.9597 7.88766 11.8865 7.87309 11.8125 7.87309C11.7386 7.87309 11.6654 7.88766 11.5971 7.91597C11.5289 7.94428 11.4668 7.98577 11.4146 8.03807ZM14.8599 10.686L14.0161 9.84228L16.0313 7.82221L16.875 8.66596L14.8599 10.686Z" fill="#040712"/>
</g>
<defs>
<clipPath id="clip0_1_743">
<rect width="18" height="18" fill="white"/>
</clipPath>
</defs>
</svg>
