<svg width="18" height="18" viewBox="0 0 18 18" fill="none" xmlns="http://www.w3.org/2000/svg">
<path d="M15.3865 7.29611L9.76148 1.98892C9.75873 1.98652 9.75615 1.98394 9.75375 1.98119C9.54665 1.79284 9.27677 1.68848 8.99684 1.68848C8.7169 1.68848 8.44702 1.79284 8.23992 1.98119L8.23219 1.98892L2.61352 7.29611C2.4989 7.4015 2.40742 7.52953 2.34485 7.67211C2.28227 7.81468 2.24998 7.96869 2.25 8.12439V14.6248C2.25 14.9231 2.36853 15.2093 2.5795 15.4203C2.79048 15.6313 3.07663 15.7498 3.375 15.7498H6.75C7.04837 15.7498 7.33452 15.6313 7.5455 15.4203C7.75647 15.2093 7.875 14.9231 7.875 14.6248V11.2498H10.125V14.6248C10.125 14.9231 10.2435 15.2093 10.4545 15.4203C10.6655 15.6313 10.9516 15.7498 11.25 15.7498H14.625C14.9234 15.7498 15.2095 15.6313 15.4205 15.4203C15.6315 15.2093 15.75 14.9231 15.75 14.6248V8.12439C15.75 7.96869 15.7177 7.81468 15.6552 7.67211C15.5926 7.52953 15.5011 7.4015 15.3865 7.29611ZM14.625 14.6248H11.25V11.2498C11.25 10.9514 11.1315 10.6653 10.9205 10.4543C10.7095 10.2433 10.4234 10.1248 10.125 10.1248H7.875C7.57663 10.1248 7.29048 10.2433 7.0795 10.4543C6.86853 10.6653 6.75 10.9514 6.75 11.2498V14.6248H3.375V8.12439L3.38273 8.11736L9 2.81228L14.618 8.11595L14.6257 8.12298L14.625 14.6248Z" fill="white"/>
</svg>
