<svg width="24" height="25" viewBox="0 0 24 25" fill="none" xmlns="http://www.w3.org/2000/svg">
<path d="M21.3113 3.18851C21.1226 3.00001 20.8872 2.8652 20.6291 2.79797C20.3711 2.73074 20.0998 2.73351 19.8431 2.80601H19.8291L1.83469 8.26601C1.54178 8.35025 1.28147 8.52172 1.08844 8.75759C0.895411 8.99346 0.778814 9.28254 0.754177 9.58633C0.72954 9.89012 0.798032 10.1942 0.950532 10.4581C1.10303 10.722 1.3323 10.9332 1.60782 11.0635L9.63469 14.8651L13.4363 22.8919C13.5563 23.149 13.7473 23.3664 13.9869 23.5184C14.2264 23.6703 14.5044 23.7506 14.7881 23.7498C14.8313 23.7498 14.8744 23.7479 14.9175 23.7441C15.2202 23.7196 15.5082 23.6031 15.7428 23.4102C15.9774 23.2174 16.1474 22.9573 16.23 22.6651L21.6863 4.6707C21.6863 4.66601 21.6863 4.66132 21.6863 4.65664C21.7597 4.40066 21.7637 4.12976 21.6978 3.87174C21.6319 3.61373 21.4985 3.37791 21.3113 3.18851ZM14.7966 22.2357L14.7919 22.2488L11.1019 14.4591L15.5306 10.0294C15.6653 9.88765 15.7393 9.69884 15.7368 9.50327C15.7343 9.3077 15.6555 9.12084 15.5172 8.98254C15.3789 8.84424 15.1921 8.76543 14.9965 8.76293C14.8009 8.76043 14.6121 8.83442 14.4703 8.96914L10.0406 13.3979L2.25001 9.70789H2.26313L20.25 4.24976L14.7966 22.2357Z" fill="#040712"/>
</svg>
