<svg width="19" height="18" viewBox="0 0 19 18" fill="none" xmlns="http://www.w3.org/2000/svg">
<path d="M5.5625 7.3125C5.5625 7.16332 5.62176 7.02024 5.72725 6.91475C5.83274 6.80926 5.97582 6.75 6.125 6.75H12.875C13.0242 6.75 13.1673 6.80926 13.2727 6.91475C13.3782 7.02024 13.4375 7.16332 13.4375 7.3125C13.4375 7.46168 13.3782 7.60476 13.2727 7.71025C13.1673 7.81574 13.0242 7.875 12.875 7.875H6.125C5.97582 7.875 5.83274 7.81574 5.72725 7.71025C5.62176 7.60476 5.5625 7.46168 5.5625 7.3125ZM6.125 10.125H12.875C13.0242 10.125 13.1673 10.0657 13.2727 9.96025C13.3782 9.85476 13.4375 9.71168 13.4375 9.5625C13.4375 9.41332 13.3782 9.27024 13.2727 9.16475C13.1673 9.05926 13.0242 9 12.875 9H6.125C5.97582 9 5.83274 9.05926 5.72725 9.16475C5.62176 9.27024 5.5625 9.41332 5.5625 9.5625C5.5625 9.71168 5.62176 9.85476 5.72725 9.96025C5.83274 10.0657 5.97582 10.125 6.125 10.125ZM16.8125 3.9375V14.625C16.8124 14.7209 16.7879 14.8151 16.7412 14.8989C16.6944 14.9826 16.6271 15.0529 16.5455 15.1033C16.4639 15.1537 16.3708 15.1824 16.2751 15.1866C16.1793 15.1909 16.084 15.1706 15.9983 15.1277L14 14.1286L12.0017 15.1277C11.9236 15.1668 11.8374 15.1872 11.75 15.1872C11.6626 15.1872 11.5764 15.1668 11.4983 15.1277L9.5 14.1286L7.50172 15.1277C7.42357 15.1668 7.33739 15.1872 7.25 15.1872C7.16261 15.1872 7.07643 15.1668 6.99828 15.1277L5 14.1286L3.00172 15.1277C2.91598 15.1706 2.8207 15.1909 2.72493 15.1866C2.62915 15.1824 2.53606 15.1537 2.45448 15.1033C2.37291 15.0529 2.30556 14.9826 2.25883 14.8989C2.21211 14.8151 2.18755 14.7209 2.1875 14.625V3.9375C2.1875 3.63913 2.30603 3.35298 2.517 3.142C2.72798 2.93103 3.01413 2.8125 3.3125 2.8125H15.6875C15.9859 2.8125 16.272 2.93103 16.483 3.142C16.694 3.35298 16.8125 3.63913 16.8125 3.9375ZM15.6875 3.9375H3.3125V13.7152L4.74828 12.9966C4.82643 12.9575 4.91261 12.9371 5 12.9371C5.08739 12.9371 5.17357 12.9575 5.25172 12.9966L7.25 13.9964L9.24828 12.9966C9.32643 12.9575 9.41261 12.9371 9.5 12.9371C9.58739 12.9371 9.67357 12.9575 9.75172 12.9966L11.75 13.9964L13.7483 12.9966C13.8264 12.9575 13.9126 12.9371 14 12.9371C14.0874 12.9371 14.1736 12.9575 14.2517 12.9966L15.6875 13.7152V3.9375Z" fill="#040712"/>
</svg>
