<svg width="18" height="18" viewBox="0 0 18 18" fill="none" xmlns="http://www.w3.org/2000/svg">
<path d="M15.75 4.5H12.375V3.9375C12.375 3.48995 12.1972 3.06072 11.8807 2.74426C11.5643 2.42779 11.1351 2.25 10.6875 2.25H7.3125C6.86495 2.25 6.43572 2.42779 6.11926 2.74426C5.80279 3.06072 5.625 3.48995 5.625 3.9375V4.5H2.25C1.95163 4.5 1.66548 4.61853 1.4545 4.8295C1.24353 5.04048 1.125 5.32663 1.125 5.625V13.5C1.125 13.7984 1.24353 14.0845 1.4545 14.2955C1.66548 14.5065 1.95163 14.625 2.25 14.625H15.75C16.0484 14.625 16.3345 14.5065 16.5455 14.2955C16.7565 14.0845 16.875 13.7984 16.875 13.5V5.625C16.875 5.32663 16.7565 5.04048 16.5455 4.8295C16.3345 4.61853 16.0484 4.5 15.75 4.5ZM6.75 3.9375C6.75 3.78832 6.80926 3.64524 6.91475 3.53975C7.02024 3.43426 7.16332 3.375 7.3125 3.375H10.6875C10.8367 3.375 10.9798 3.43426 11.0852 3.53975C11.1907 3.64524 11.25 3.78832 11.25 3.9375V4.5H6.75V3.9375ZM15.75 5.625V7.875H13.5V7.3125C13.5 7.16332 13.4407 7.02024 13.3352 6.91475C13.2298 6.80926 13.0867 6.75 12.9375 6.75C12.7883 6.75 12.6452 6.80926 12.5398 6.91475C12.4343 7.02024 12.375 7.16332 12.375 7.3125V7.875H5.625V7.3125C5.625 7.16332 5.56574 7.02024 5.46025 6.91475C5.35476 6.80926 5.21168 6.75 5.0625 6.75C4.91332 6.75 4.77024 6.80926 4.66475 6.91475C4.55926 7.02024 4.5 7.16332 4.5 7.3125V7.875H2.25V5.625H15.75ZM15.75 13.5H2.25V9H4.5V9.5625C4.5 9.71168 4.55926 9.85476 4.66475 9.96025C4.77024 10.0657 4.91332 10.125 5.0625 10.125C5.21168 10.125 5.35476 10.0657 5.46025 9.96025C5.56574 9.85476 5.625 9.71168 5.625 9.5625V9H12.375V9.5625C12.375 9.71168 12.4343 9.85476 12.5398 9.96025C12.6452 10.0657 12.7883 10.125 12.9375 10.125C13.0867 10.125 13.2298 10.0657 13.3352 9.96025C13.4407 9.85476 13.5 9.71168 13.5 9.5625V9H15.75V13.5Z" fill="#040712"/>
</svg>
