<svg width="18" height="18" viewBox="0 0 18 18" fill="none" xmlns="http://www.w3.org/2000/svg">
<path d="M17.2125 10.5749C17.1534 10.6192 17.0861 10.6514 17.0146 10.6698C16.943 10.6881 16.8685 10.6922 16.7954 10.6817C16.7223 10.6713 16.6519 10.6465 16.5884 10.6089C16.5248 10.5713 16.4693 10.5215 16.425 10.4624C16.0859 10.0067 15.6446 9.6369 15.1366 9.38289C14.6286 9.12887 14.068 8.99768 13.5 8.99988C13.3894 8.99987 13.2812 8.96725 13.189 8.90609C13.0969 8.84494 13.0248 8.75797 12.9818 8.65605C12.9526 8.58685 12.9375 8.51249 12.9375 8.43738C12.9375 8.36227 12.9526 8.28791 12.9818 8.21871C13.0248 8.1168 13.0969 8.02982 13.189 7.96867C13.2812 7.90751 13.3894 7.87489 13.5 7.87488C13.8156 7.87485 14.1249 7.78632 14.3927 7.61932C14.6605 7.45233 14.8761 7.21358 15.015 6.93019C15.154 6.6468 15.2106 6.33013 15.1786 6.01614C15.1466 5.70216 15.0271 5.40345 14.8339 5.15394C14.6406 4.90444 14.3812 4.71414 14.0852 4.60466C13.7892 4.49518 13.4684 4.47091 13.1593 4.5346C12.8501 4.5983 12.5651 4.74741 12.3365 4.96499C12.1078 5.18258 11.9448 5.45992 11.8659 5.76551C11.8474 5.83707 11.8151 5.90429 11.7706 5.96333C11.7262 6.02238 11.6705 6.07209 11.6069 6.10964C11.5432 6.14718 11.4728 6.17181 11.3996 6.18214C11.3264 6.19246 11.2519 6.18827 11.1804 6.1698C11.1088 6.15134 11.0416 6.11895 10.9825 6.07451C10.9235 6.03006 10.8738 5.97442 10.8362 5.91076C10.7987 5.8471 10.7741 5.77667 10.7637 5.70349C10.7534 5.63031 10.7576 5.55582 10.7761 5.48426C10.8856 5.06049 11.0925 4.66814 11.3803 4.33841C11.6682 4.00868 12.029 3.75068 12.4341 3.58494C12.8392 3.4192 13.2773 3.35029 13.7137 3.38369C14.1502 3.4171 14.5728 3.55189 14.9479 3.77736C15.323 4.00282 15.6404 4.31273 15.8747 4.68243C16.109 5.05212 16.2538 5.47139 16.2975 5.90689C16.3413 6.34238 16.2828 6.78208 16.1267 7.19099C15.9706 7.59989 15.7212 7.96673 15.3984 8.2623C16.1633 8.59347 16.8282 9.119 17.3271 9.78668C17.3714 9.84592 17.4036 9.91333 17.4218 9.98504C17.4401 10.0567 17.444 10.1313 17.4333 10.2046C17.4227 10.2778 17.3977 10.3482 17.3598 10.4117C17.3219 10.4753 17.2718 10.5307 17.2125 10.5749ZM13.424 14.9061C13.4647 14.9702 13.4921 15.0417 13.5044 15.1166C13.5167 15.1915 13.5137 15.268 13.4957 15.3417C13.4776 15.4154 13.4449 15.4847 13.3993 15.5454C13.3538 15.6061 13.2965 15.6569 13.2308 15.6949C13.1651 15.7329 13.0925 15.7571 13.0172 15.7663C12.9418 15.7754 12.8655 15.7693 12.7926 15.7481C12.7197 15.727 12.6519 15.6913 12.5932 15.6433C12.5345 15.5953 12.4861 15.5359 12.4509 15.4686C12.0966 14.8686 11.5919 14.3714 10.9867 14.026C10.3816 13.6805 9.69679 13.4989 8.99997 13.4989C8.30315 13.4989 7.61837 13.6805 7.0132 14.026C6.40803 14.3714 5.90337 14.8686 5.54903 15.4686C5.51387 15.5359 5.46547 15.5953 5.40675 15.6433C5.34802 15.6913 5.28019 15.727 5.20733 15.7481C5.13447 15.7693 5.05809 15.7754 4.98278 15.7663C4.90747 15.7571 4.83479 15.7329 4.76911 15.6949C4.70343 15.6569 4.64611 15.6061 4.60059 15.5454C4.55508 15.4847 4.52231 15.4154 4.50426 15.3417C4.48621 15.268 4.48325 15.1915 4.49557 15.1166C4.50788 15.0417 4.53521 14.9702 4.57591 14.9061C5.12125 13.9691 5.95276 13.2318 6.94825 12.8024C6.38809 12.3735 5.97641 11.7799 5.77108 11.1049C5.56575 10.43 5.57709 9.70764 5.8035 9.03947C6.02992 8.3713 6.46003 7.79088 7.03338 7.37979C7.60672 6.96871 8.29448 6.74763 8.99997 6.74763C9.70546 6.74763 10.3932 6.96871 10.9666 7.37979C11.5399 7.79088 11.97 8.3713 12.1964 9.03947C12.4229 9.70764 12.4342 10.43 12.2289 11.1049C12.0235 11.7799 11.6118 12.3735 11.0517 12.8024C12.0472 13.2318 12.8787 13.9691 13.424 14.9061ZM8.99997 12.3749C9.44498 12.3749 9.87999 12.2429 10.25 11.9957C10.62 11.7485 10.9084 11.3971 11.0787 10.9859C11.249 10.5748 11.2936 10.1224 11.2067 9.68593C11.1199 9.24947 10.9056 8.84856 10.591 8.53389C10.2763 8.21922 9.87538 8.00493 9.43892 7.91811C9.00247 7.8313 8.55007 7.87585 8.13893 8.04615C7.7278 8.21645 7.3764 8.50484 7.12916 8.87485C6.88193 9.24486 6.74997 9.67987 6.74997 10.1249C6.74997 10.7216 6.98702 11.2939 7.40898 11.7159C7.83094 12.1378 8.40323 12.3749 8.99997 12.3749ZM5.06247 8.43738C5.06247 8.2882 5.00321 8.14512 4.89772 8.03963C4.79223 7.93414 4.64915 7.87488 4.49997 7.87488C4.18436 7.87485 3.87508 7.78632 3.60726 7.61932C3.33944 7.45233 3.12383 7.21358 2.9849 6.93019C2.84597 6.6468 2.7893 6.33013 2.82133 6.01614C2.85335 5.70216 2.97279 5.40345 3.16608 5.15394C3.35936 4.90444 3.61874 4.71414 3.91476 4.60466C4.21077 4.49518 4.53156 4.47091 4.84068 4.5346C5.1498 4.5983 5.43486 4.74741 5.66348 4.96499C5.89211 5.18258 6.05513 5.45992 6.13403 5.76551C6.17133 5.91003 6.26451 6.03382 6.39307 6.10964C6.52164 6.18546 6.67506 6.2071 6.81958 6.1698C6.9641 6.13251 7.08789 6.03933 7.16371 5.91076C7.23953 5.7822 7.26117 5.62878 7.22388 5.48426C7.11436 5.06049 6.90745 4.66814 6.61962 4.33841C6.33178 4.00868 5.97096 3.75068 5.56587 3.58494C5.16078 3.4192 4.7226 3.35029 4.28619 3.38369C3.84978 3.4171 3.42719 3.55189 3.05204 3.77736C2.6769 4.00282 2.35955 4.31273 2.12525 4.68243C1.89095 5.05212 1.74617 5.47139 1.70242 5.90689C1.65868 6.34238 1.71718 6.78208 1.87327 7.19099C2.02935 7.59989 2.27872 7.96673 2.60153 8.2623C1.83743 8.59379 1.17328 9.11929 0.674969 9.78668C0.585365 9.90603 0.546842 10.0561 0.567874 10.2038C0.588906 10.3516 0.66777 10.4849 0.787118 10.5745C0.906465 10.6641 1.05652 10.7027 1.20427 10.6816C1.35202 10.6606 1.48537 10.5817 1.57497 10.4624C1.91401 10.0067 2.35531 9.6369 2.86335 9.38289C3.37139 9.12887 3.93197 8.99768 4.49997 8.99988C4.64915 8.99988 4.79223 8.94062 4.89772 8.83513C5.00321 8.72964 5.06247 8.58657 5.06247 8.43738Z" fill="#040712"/>
</svg>
