<svg width="18" height="18" viewBox="0 0 18 18" fill="none" xmlns="http://www.w3.org/2000/svg">
<path d="M16.875 12.9376H16.3125V4.07118L16.9924 3.92493C17.0662 3.91109 17.1365 3.88262 17.1991 3.84119C17.2617 3.79976 17.3154 3.74622 17.357 3.68371C17.3986 3.62121 17.4273 3.55101 17.4413 3.47725C17.4554 3.40349 17.4545 3.32767 17.4388 3.25426C17.423 3.18084 17.3928 3.11132 17.3498 3.04978C17.3067 2.98825 17.2518 2.93595 17.1883 2.89596C17.1247 2.85598 17.0538 2.82913 16.9797 2.81698C16.9056 2.80483 16.8299 2.80764 16.7569 2.82524L1.00687 6.20024C0.871189 6.22952 0.751121 6.30794 0.669765 6.42041C0.588409 6.53288 0.551512 6.67146 0.56617 6.80949C0.580829 6.94752 0.646007 7.07526 0.749169 7.16813C0.852331 7.26101 0.986191 7.31246 1.125 7.31259C1.16494 7.31252 1.20477 7.30827 1.24383 7.29993L1.6875 7.20501V12.9376H1.125C0.975816 12.9376 0.832742 12.9969 0.727252 13.1023C0.621763 13.2078 0.5625 13.3509 0.5625 13.5001C0.5625 13.6493 0.621763 13.7923 0.727252 13.8978C0.832742 14.0033 0.975816 14.0626 1.125 14.0626H16.875C17.0242 14.0626 17.1673 14.0033 17.2727 13.8978C17.3782 13.7923 17.4375 13.6493 17.4375 13.5001C17.4375 13.3509 17.3782 13.2078 17.2727 13.1023C17.1673 12.9969 17.0242 12.9376 16.875 12.9376ZM2.8125 6.96103L15.1875 4.31235V12.9376H13.5V9.00009C13.5 8.8509 13.4407 8.70783 13.3352 8.60234C13.2298 8.49685 13.0867 8.43759 12.9375 8.43759H5.0625C4.91332 8.43759 4.77024 8.49685 4.66475 8.60234C4.55926 8.70783 4.5 8.8509 4.5 9.00009V12.9376H2.8125V6.96103ZM12.375 10.6876H5.625V9.56259H12.375V10.6876ZM5.625 11.8126H12.375V12.9376H5.625V11.8126Z" fill="#040712"/>
</svg>
